<svg xmlns="http://www.w3.org/2000/svg" viewBox="0 0 24 24" fill="currentColor">
  <path d="M22 10.5V12h-2v-1.5c0-2.06-1.35-3.83-3.27-4.58l-1.32-.51-.49-1.4A5.002 5.002 0 0 0 10.23 2H10c-2.76 0-5 2.24-5 5v1.5c0 .83.67 1.5 1.5 1.5S8 9.33 8 8.5V7c0-1.1.9-2 2-2h.23c1.12 0 2.1.75 2.47 1.81l.49 1.4 1.32.51C16.65 9.17 18 10.94 18 13v1.5c0 .83.67 1.5 1.5 1.5s1.5-.67 1.5-1.5V13h2v-1.5c0-1.74-1.43-3.15-3.17-3.15A3.18 3.18 0 0 0 18 10.5zM12 22a2 2 0 0 0 2-2h-4a2 2 0 0 0 2 2zM6.5 16h11c.83 0 1.5-.67 1.5-1.5v-3c0-.83-.67-1.5-1.5-1.5h-11C5.67 10 5 10.67 5 11.5v3c0 .83.67 1.5 1.5 1.5z"/>
</svg>
