<svg width="200" height="80" viewBox="0 0 200 80" fill="none" xmlns="http://www.w3.org/2000/svg">
  <!-- Modern construction helmet -->
  <path d="M30 20C30 15 34 11 39 11H61C66 11 70 15 70 20V30C70 35 66 39 61 39H39C34 39 30 35 30 30V20Z" fill="#00BFFF" stroke="#ffffff" stroke-width="2"/>
  
  <!-- Helmet brim with realistic shadow -->
  <ellipse cx="50" cy="39" rx="25" ry="4" fill="#0099cc" opacity="0.7"/>
  
  <!-- Professional tools - spirit level and square -->
  <rect x="12" y="27" width="18" height="2.5" rx="1" fill="#fbbf24" transform="rotate(45 21 28.25)"/>
  <rect x="12" y="33" width="2.5" height="12" rx="1" fill="#fbbf24" transform="rotate(45 13.25 39)"/>
  
  <rect x="76" y="27" width="18" height="2.5" rx="1" fill="#fbbf24" transform="rotate(-45 85 28.25)"/>
  <rect x="93" y="33" width="2.5" height="12" rx="1" fill="#fbbf24" transform="rotate(-45 94.25 39)"/>
  
  <!-- Clean, modern text -->
  <text x="110" y="32" font-family="Arial, sans-serif" font-size="24" font-weight="700" fill="#00BFFF">Bygg</text>
  <text x="110" y="54" font-family="Arial, sans-serif" font-size="24" font-weight="700" fill="#fbbf24">Pilot</text>
  
  <!-- Professional tagline -->
  <text x="110" y="66" font-family="Arial, sans-serif" font-size="10" fill="#999">Din digitala kollega</text>
</svg>
