<svg xmlns="http://www.w3.org/2000/svg" viewBox="0 0 200 200" width="200" height="200">
  <!-- Bakgrund -->
  <circle cx="100" cy="100" r="95" fill="#1E3A8A" stroke="#3B82F6" stroke-width="2"/>
  
  <!-- Huvudikon - byggverktyg -->
  <g transform="translate(100,100)" fill="#FFFFFF">
    <!-- Hammare -->
    <path d="M-30,-25 L-20,-25 L-15,-15 L-25,-15 Z" fill="#FCD34D"/>
    <rect x="-18" y="-15" width="4" height="25" fill="#92400E"/>
    
    <!-- Skruvmejsel -->
    <path d="M10,-25 L20,-25 L18,-15 L12,-15 Z" fill="#FCD34D"/>
    <rect x="14" y="-15" width="2" height="25" fill="#92400E"/>
    
    <!-- Byggnadsblock/tegelsten -->
    <rect x="-35" y="5" width="15" height="8" fill="#DC2626" stroke="#B91C1C"/>
    <rect x="-18" y="5" width="15" height="8" fill="#DC2626" stroke="#B91C1C"/>
    <rect x="-1" y="5" width="15" height="8" fill="#DC2626" stroke="#B91C1C"/>
    <rect x="16" y="5" width="15" height="8" fill="#DC2626" stroke="#B91C1C"/>
    
    <rect x="-26" y="15" width="15" height="8" fill="#EF4444" stroke="#DC2626"/>
    <rect x="-9" y="15" width="15" height="8" fill="#EF4444" stroke="#DC2626"/>
    <rect x="8" y="15" width="15" height="8" fill="#EF4444" stroke="#DC2626"/>
    
    <!-- Pilot/navigationsymbol -->
    <circle cx="0" cy="-35" r="8" fill="#10B981" stroke="#047857"/>
    <path d="M-4,-35 L0,-30 L4,-35 Z" fill="#FFFFFF"/>
  </g>
  
  <!-- Text -->
  <text x="100" y="175" text-anchor="middle" font-family="Arial, sans-serif" font-size="18" font-weight="bold" fill="#FFFFFF">
    ByggPilot
  </text>
</svg>
